<?xml version="1.0" encoding="UTF-8"?>
<!-- Developed using https://www.w3schools.com/graphics/svg_path.asp -->
<svg
		xmlns="http://www.w3.org/2000/svg"
		height="580" width="580">

	<g transform="translate(290, 19) scale(20, 20)">
		<g style="fill:#f2f2f2;stroke:black;stroke-width:0.1">
			<path id="leaf" d="M 0.000000000000,  0.000000000000
			Q 6.028055987135, -2.590604024774 14.327008945546,  4.655127394513
			Q 8.692428654318,  3.380771441511 0.000000000000,  9.310254789026
			Q -10.517585369118,  8.998026215416 -14.327008945546,  4.655127394513
			Q -3.354080896344,  5.639045090970 0.000000000000, -0.000000000000"
			/>
		</g>

		<g style="fill:none;stroke:#8888ff;stroke-width:0.025">
			<path id="leaf-ghost" d="M 0.000000000000,  0.000000000000
			L 14.327008945546,  4.655127394513
			L 0.000000000000,  9.310254789026
			L -14.327008945546,  4.655127394513
			L 0.000000000000, -0.000000000000"
			/>
		</g>
	</g>

	<g transform="translate(290, 219) scale(20, 20)">
		<g style="fill:#f2f2f2;stroke:black;stroke-width:0.1">
			<path id="Petal" d="M 0.000000000000, 0.000000000000 
			Q 6.533562596508 -0.601039095833 12.187281740795,  8.854578485471
			Q 1.447359727493, 11.309638394015 0.000000000000, 17.709156970942 
			Q -2.280947575180, 12.401638123823 -12.187281740795,  8.854578485471
			Q -5.752601948921,  0.529196532978 0.000000000000 -0.000000000000"
			/>
		</g>

		<g style="fill:none;stroke:#8888ff;stroke-width:0.025">
			<path id="Petal-ghost" d="M 0.000000000000, 0.000000000000 
			L 12.187281740795,  8.854578485471
			L 0.000000000000, 17.709156970942 
			L -12.187281740795,  8.854578485471
			L 0.000000000000 -0.000000000000"
			/>
		</g>
	</g>

</svg>
